# xmcd CD database file
#
# Track frame offsets:
#	150
#	14662
#	26625
#	38542
#	52552
#	69895
#	80450
#	93305
#	106067
#	119990
#	132872
#	146730
#
# Disc length: 2122 seconds
#
# Revision: 0
# Processed by: cddbd v1.4PL0 Copyright (c) Steve Scherf et al.
# Submitted via: CDex 1.50Beta7
#
DISCID=9708480c
DTITLE=B. B. King - The Blues Vol. II
DYEAR=1900
DGENRE=Blues
TTITLE0=I've Got a Right to Love my Baby
TTITLE1=If I Lost You
TTITLE2=Get Out of Here
TTITLE3=Baby at Look at You
TTITLE4=That Evil Child
TTITLE5=I'm King
TTITLE6=Rock me Baby
TTITLE7=Every Day I Have The Blues
TTITLE8=You Know I Love You
TTITLE9=Someday Baby
TTITLE10=I Was Blind
TTITLE11=Good Man Gone Bad
EXTD=
EXTT0=
EXTT1=
EXTT2=
EXTT3=
EXTT4=
EXTT5=
EXTT6=
EXTT7=
EXTT8=
EXTT9=
EXTT10=
EXTT11=
PLAYORDER=
